<svg version="1.1" xmlns="http://www.w3.org/2000/svg" viewBox="0 0 642 485" width="642" height="485">
  <!-- svg-source:excalidraw -->

  <defs>
    <style class="style-fonts">

    </style>

  </defs>
  <g stroke-linecap="round" transform="translate(10 10) rotate(0 311 232.5)">
    <path
      d="M0 0 C0 0, 0 0, 0 0 M0 0 C0 0, 0 0, 0 0 M0.13 12.04 C2.09 7.17, 7.36 4.69, 10.63 -0.03 M0.13 12.04 C3.91 7.7, 8.35 3.57, 10.63 -0.03 M0.27 24.08 C6.51 17.31, 9.31 11.43, 21.26 -0.07 M0.27 24.08 C7.84 17.3, 13.42 8.02, 21.26 -0.07 M-0.26 36.88 C10.63 23.93, 19.85 13.65, 31.89 -0.1 M-0.26 36.88 C11.24 24.33, 23.06 11.05, 31.89 -0.1 M-0.12 48.92 C9.15 38.57, 21.95 25.21, 42.52 -0.14 M-0.12 48.92 C10.83 36.44, 20.59 25.13, 42.52 -0.14 M0.01 60.96 C19.58 41.77, 34.89 17.85, 53.15 -0.17 M0.01 60.96 C14.29 46.3, 27.3 30.82, 53.15 -0.17 M0.14 73 C21.17 46.7, 44.51 24.51, 63.78 -0.21 M0.14 73 C22.54 46.34, 46.97 19.75, 63.78 -0.21 M0.28 85.04 C27.89 53.69, 56.13 23.92, 74.41 -0.24 M0.28 85.04 C24.42 56.12, 50.19 26.92, 74.41 -0.24 M-0.25 97.84 C21.18 72.89, 41.48 50.72, 85.04 -0.28 M-0.25 97.84 C33 60.24, 63.63 23.54, 85.04 -0.28 M-0.11 109.88 C21.96 87.18, 38.59 62.81, 95.67 -0.31 M-0.11 109.88 C25.93 77.79, 53.51 45.92, 95.67 -0.31 M0.02 121.92 C23.47 97.02, 47.4 66.69, 106.3 -0.34 M0.02 121.92 C25.54 93.56, 50.97 63.87, 106.3 -0.34 M0.15 133.96 C34.64 93.46, 71.23 49.14, 116.27 0.38 M0.15 133.96 C43.52 82.24, 88.73 31.42, 116.27 0.38 M0.29 146 C33.66 109.82, 66.35 69.67, 126.91 0.34 M0.29 146 C29.61 113.82, 58.54 81.41, 126.91 0.34 M-0.24 158.8 C49.8 100.62, 97.87 44.56, 137.54 0.31 M-0.24 158.8 C51.29 99.82, 102.09 41.1, 137.54 0.31 M-0.1 170.84 C41.89 121.08, 86.6 69.85, 148.17 0.27 M-0.1 170.84 C49.95 111.88, 100.26 53.86, 148.17 0.27 M0.03 182.88 C43.59 133.63, 85.24 83.74, 158.8 0.24 M0.03 182.88 C57.29 116.56, 113.28 50.89, 158.8 0.24 M0.16 194.92 C62.23 122.07, 126.2 50.33, 169.43 0.2 M0.16 194.92 C50.27 136.85, 102.19 78.92, 169.43 0.2 M0.3 206.96 C71.16 123.68, 144.34 41.83, 180.06 0.17 M0.3 206.96 C56.03 145.76, 109.81 83.26, 180.06 0.17 M-0.23 219.75 C54.53 156.64, 107.03 96.79, 190.69 0.13 M-0.23 219.75 C63.04 148.46, 124.96 75.94, 190.69 0.13 M-0.09 231.8 C64.51 156.6, 128.29 79.6, 201.32 0.1 M-0.09 231.8 C73.9 146.95, 147.22 63.24, 201.32 0.1 M0.04 243.84 C76.88 155.38, 151.57 68.09, 211.95 0.06 M0.04 243.84 C79.85 152.96, 158.72 61.07, 211.95 0.06 M0.17 255.88 C58.84 187.3, 118.53 119.43, 222.58 0.03 M0.17 255.88 C71.67 172.25, 142.62 91.04, 222.58 0.03 M0.3 267.92 C64.27 195.61, 127.1 123.29, 233.21 0 M0.3 267.92 C69.55 186.93, 139.83 105.73, 233.21 0 M-0.22 280.71 C69.28 201.76, 136.61 122.69, 243.84 -0.04 M-0.22 280.71 C90.32 177.95, 178.82 75.98, 243.84 -0.04 M-0.08 292.75 C53.76 232.13, 104.01 173.48, 254.47 -0.07 M-0.08 292.75 C70.37 210.49, 140.92 129.47, 254.47 -0.07 M0.05 304.8 C66.86 225.86, 134.78 146.89, 265.1 -0.11 M0.05 304.8 C80.85 210.7, 161.58 117.61, 265.1 -0.11 M0.18 316.84 C81.11 224.38, 163.14 130.77, 275.73 -0.14 M0.18 316.84 C108.97 190.26, 218.9 62.93, 275.73 -0.14 M0.31 328.88 C89.04 226.09, 180.61 121.51, 286.36 -0.18 M0.31 328.88 C106.29 207.88, 212.55 86.46, 286.36 -0.18 M-0.21 341.67 C59.5 271.69, 120.97 202.9, 296.99 -0.21 M-0.21 341.67 C80.28 248.26, 161.71 154.12, 296.99 -0.21 M-0.08 353.71 C66.8 275.71, 133.16 198.91, 307.62 -0.25 M-0.08 353.71 C123.53 212.53, 245.68 72.21, 307.62 -0.25 M0.06 365.75 C105.53 242.38, 210.71 121.42, 318.25 -0.28 M0.06 365.75 C72.06 282.63, 144.17 199.49, 318.25 -0.28 M0.19 377.79 C113.93 246.18, 230.1 115.04, 328.88 -0.31 M0.19 377.79 C78.94 286.55, 158.85 194.55, 328.88 -0.31 M0.32 389.84 C72.01 305.35, 145.85 222.28, 339.51 -0.35 M0.32 389.84 C100.67 273.77, 199.94 159.16, 339.51 -0.35 M-0.2 402.63 C120.42 264.7, 239.55 127.16, 349.48 0.37 M-0.2 402.63 C133.22 250.44, 265.74 97.48, 349.48 0.37 M-0.07 414.67 C114.82 281.57, 230.69 148.98, 360.11 0.34 M-0.07 414.67 C82.66 319.08, 166.3 222.47, 360.11 0.34 M0.07 426.71 C92.14 318.9, 185.69 212.8, 370.74 0.3 M0.07 426.71 C110.76 299.17, 220.31 173.49, 370.74 0.3 M0.2 438.75 C95.41 328.98, 190.41 220.21, 381.37 0.27 M0.2 438.75 C118.47 304.1, 236.82 168.17, 381.37 0.27 M-0.32 451.55 C145.21 283.84, 292.81 116.44, 392 0.23 M-0.32 451.55 C115.07 320.2, 229.46 188.2, 392 0.23 M-0.19 463.59 C138.61 307.26, 274.89 149.25, 402.63 0.2 M-0.19 463.59 C124.34 318.13, 250.87 172.87, 402.63 0.2 M5.19 469.59 C102.16 357.77, 199.12 247.1, 413.26 0.16 M5.19 469.59 C122.47 336.04, 240.39 200.69, 413.26 0.16 M15.82 469.56 C121.29 347.99, 227.04 225.51, 423.89 0.13 M15.82 469.56 C155.51 307.44, 296.81 145.34, 423.89 0.13 M26.45 469.52 C113.61 372.79, 197.74 273.97, 434.52 0.1 M26.45 469.52 C115.18 367.75, 204.24 265.66, 434.52 0.1 M37.08 469.49 C126.09 363.78, 215.23 260.48, 445.15 0.06 M37.08 469.49 C126.57 367.29, 216.66 263.85, 445.15 0.06 M47.71 469.46 C163.23 337.76, 278.93 203.93, 455.78 0.03 M47.71 469.46 C143.41 359.45, 238.26 250.8, 455.78 0.03 M58.34 469.42 C203.6 302.73, 350.17 133.87, 466.41 -0.01 M58.34 469.42 C170.89 340.5, 281.87 212.18, 466.41 -0.01 M68.97 469.39 C189.92 332.37, 309.17 195.21, 477.04 -0.04 M68.97 469.39 C189.41 331.97, 309.07 193.58, 477.04 -0.04 M79.6 469.35 C220.05 305.32, 362.47 142.37, 487.67 -0.08 M79.6 469.35 C221.68 303.2, 364.8 137.9, 487.67 -0.08 M90.23 469.32 C217.07 324.44, 342.23 180.16, 498.3 -0.11 M90.23 469.32 C246.8 288.9, 405.46 106.47, 498.3 -0.11 M100.86 469.28 C264.16 281.22, 425.64 93.81, 508.93 -0.15 M100.86 469.28 C189.53 366.41, 278.81 263.47, 508.93 -0.15 M111.49 469.25 C202.2 364.14, 292.85 260.01, 519.56 -0.18 M111.49 469.25 C237.05 325.85, 362.85 180.13, 519.56 -0.18 M122.12 469.21 C225.07 351.11, 329.25 232.85, 530.19 -0.22 M122.12 469.21 C265.82 301.35, 411.23 134.41, 530.19 -0.22 M132.75 469.18 C287.16 292.55, 441.33 115.82, 540.82 -0.25 M132.75 469.18 C242.58 343.98, 352.38 217.66, 540.82 -0.25 M142.73 469.9 C303.63 285.31, 462.49 103.12, 551.45 -0.28 M142.73 469.9 C286.29 301.61, 431.92 133.92, 551.45 -0.28 M153.36 469.87 C289.76 312.01, 427.75 153.02, 562.08 -0.32 M153.36 469.87 C273.19 331.3, 394.75 191.71, 562.08 -0.32 M163.99 469.83 C252.58 366.8, 342.7 262.96, 572.71 -0.35 M163.99 469.83 C297.57 315.11, 432.52 159.47, 572.71 -0.35 M174.62 469.8 C300.75 322.3, 428.69 175.34, 582.69 0.37 M174.62 469.8 C268.85 360.05, 365.21 249.44, 582.69 0.37 M185.25 469.76 C302.7 333.01, 421.95 197.16, 593.32 0.33 M185.25 469.76 C310.98 327.1, 436.66 182.07, 593.32 0.33 M195.88 469.73 C331.48 312.82, 469.5 153.13, 603.95 0.3 M195.88 469.73 C335.25 308.85, 475.89 146.73, 603.95 0.3 M206.51 469.69 C320.35 339.16, 433.69 207.65, 614.58 0.26 M206.51 469.69 C298.3 363.99, 391.56 257.5, 614.58 0.26 M217.14 469.66 C335.39 333.17, 451.15 200.17, 623.9 1.74 M217.14 469.66 C338.21 330.29, 459.03 190.29, 623.9 1.74 M227.77 469.62 C310.52 377.33, 390.89 284.93, 624.03 13.78 M227.77 469.62 C365.07 309.68, 502.67 151.07, 624.03 13.78 M238.4 469.59 C341.38 351.9, 443.89 233.57, 624.16 25.82 M238.4 469.59 C389.8 298.05, 539.43 125.69, 624.16 25.82 M249.03 469.55 C328.5 378.9, 407.13 285.57, 623.64 38.62 M249.03 469.55 C341.1 363.81, 431.75 259.72, 623.64 38.62 M259.66 469.52 C340.42 380.1, 418.81 289.04, 623.77 50.66 M259.66 469.52 C376.24 335.92, 492.99 201.52, 623.77 50.66 M270.29 469.49 C409.34 310.15, 548.94 152.06, 623.9 62.7 M270.29 469.49 C341.08 387.29, 412.38 304.9, 623.9 62.7 M280.92 469.45 C388.73 343.15, 498.61 218.29, 624.04 74.74 M280.92 469.45 C353.6 383.37, 428.18 298.31, 624.04 74.74 M291.55 469.42 C408.12 332.56, 527.7 194.93, 624.17 86.78 M291.55 469.42 C367.12 382.04, 442.65 295.83, 624.17 86.78 M302.18 469.38 C423.78 332.09, 543.51 192.79, 623.65 99.57 M302.18 469.38 C368.66 391.03, 436.84 312.8, 623.65 99.57 M312.81 469.35 C392.39 376.6, 472.98 283.64, 623.78 111.62 M312.81 469.35 C385.9 384.84, 460.64 298.81, 623.78 111.62 M323.44 469.31 C394 387.68, 465.86 306.54, 623.91 123.66 M323.44 469.31 C400.2 378.38, 479.2 288.23, 623.91 123.66 M334.07 469.28 C446.18 340.05, 558.22 210.85, 624.05 135.7 M334.07 469.28 C415.85 377.44, 496.52 285.11, 624.05 135.7 M344.7 469.24 C450.67 347.08, 555.95 225.91, 624.18 147.74 M344.7 469.24 C438.56 362.38, 532.04 254.76, 624.18 147.74 M355.33 469.21 C452.71 356.8, 549.83 243.4, 623.66 160.53 M355.33 469.21 C434.91 380.96, 512.21 291.95, 623.66 160.53 M365.96 469.18 C447.58 374.17, 528.47 279.52, 623.79 172.57 M365.96 469.18 C421.34 405.4, 476.75 342.25, 623.79 172.57 M375.93 469.9 C459.38 371.07, 544.98 273.73, 623.92 184.62 M375.93 469.9 C461.21 371.55, 547.17 272.96, 623.92 184.62 M386.56 469.86 C433.14 415.47, 480.97 360.95, 624.06 196.66 M386.56 469.86 C457.13 390.31, 527.88 308.83, 624.06 196.66 M397.19 469.83 C445.83 411.91, 494.59 355.12, 624.19 208.7 M397.19 469.83 C447.4 412, 497.86 353.44, 624.19 208.7 M407.82 469.79 C453.09 418.16, 497.83 366.12, 623.67 221.49 M407.82 469.79 C453.5 418.7, 497.43 368.12, 623.67 221.49 M418.45 469.76 C459.65 420.8, 502.47 373.19, 623.8 233.53 M418.45 469.76 C463.57 414.48, 509.71 361.37, 623.8 233.53 M429.08 469.72 C497.48 389.99, 567.38 311.42, 623.93 245.57 M429.08 469.72 C498.48 386.98, 570.21 304.98, 623.93 245.57 M439.71 469.69 C489.5 414.14, 539.15 357.69, 624.07 257.62 M439.71 469.69 C506.74 392.45, 574.79 315.64, 624.07 257.62 M450.34 469.65 C501.11 411.21, 553.3 351.14, 624.2 269.66 M450.34 469.65 C488.21 425.83, 527.31 381.53, 624.2 269.66 M460.97 469.62 C510.43 413.28, 557.57 355.95, 623.68 282.45 M460.97 469.62 C519.27 399.29, 579.76 329.61, 623.68 282.45 M471.6 469.59 C519.76 412.93, 567.77 355.26, 623.81 294.49 M471.6 469.59 C508.1 426.62, 545.91 383.19, 623.81 294.49 M482.23 469.55 C530.33 413.03, 574.32 360.95, 623.94 306.53 M482.23 469.55 C522.98 423.22, 564.7 374.91, 623.94 306.53 M492.86 469.52 C535.67 418.96, 583.27 368.11, 624.08 318.57 M492.86 469.52 C533.55 422.31, 573.99 375.24, 624.08 318.57 M503.49 469.48 C540.84 425.88, 581.64 380.38, 624.21 330.62 M503.49 469.48 C536.16 431.92, 569.85 393.1, 624.21 330.62 M514.12 469.45 C546.29 427.4, 581.45 388.29, 623.69 343.41 M514.12 469.45 C548.42 429.86, 581.82 391.64, 623.69 343.41 M524.75 469.41 C559.7 428.52, 597.22 386.5, 623.82 355.45 M524.75 469.41 C544.75 445.61, 567.49 420.05, 623.82 355.45 M535.39 469.38 C555.88 446.2, 574.03 423.9, 623.95 367.49 M535.39 469.38 C565.22 434.85, 596.5 398.67, 623.95 367.49 M546.02 469.34 C567.29 444.88, 589.85 418.63, 624.09 379.53 M546.02 469.34 C570.42 443.04, 592.66 417.51, 624.09 379.53 M556.65 469.31 C577.06 447.85, 596.59 423.51, 624.22 391.57 M556.65 469.31 C580.25 441.94, 603.54 414.17, 624.22 391.57 M567.28 469.27 C582.82 453.05, 598.12 434.56, 623.7 404.37 M567.28 469.27 C579.38 455.48, 593.4 440.07, 623.7 404.37 M577.91 469.24 C597.69 448.93, 613.89 426.9, 623.83 416.41 M577.91 469.24 C590.13 454.48, 602.83 441.6, 623.83 416.41 M588.54 469.21 C601.44 452.39, 614.94 437.22, 623.96 428.45 M588.54 469.21 C596.09 461.3, 604.76 452.09, 623.96 428.45 M599.17 469.17 C602.54 465.22, 610.27 457.07, 624.1 440.49 M599.17 469.17 C604.47 462.04, 611.33 454.91, 624.1 440.49 M609.14 469.89 C615.16 465.44, 616.73 460.5, 624.23 452.53 M609.14 469.89 C613.03 464.89, 615.47 461.75, 624.23 452.53"
      stroke="#ced4da" stroke-width="1" fill="none"></path>
    <path
      d="M0 0 C225.7 -0.96, 452.21 -1.08, 622 0 M0 0 C149.14 -2.34, 298.22 -2.21, 622 0 M622 0 C620.95 109.03, 620.78 217.6, 622 465 M622 0 C621.37 167.9, 621.77 336.67, 622 465 M622 465 C386.24 464.47, 150.82 463.77, 0 465 M622 465 C497.07 462.89, 371.44 462.55, 0 465 M0 465 C-1.51 328.23, -1.97 192.89, 0 0 M0 465 C2.17 359.31, 1.88 254.07, 0 0"
      stroke="#1e1e1e" stroke-width="2" fill="none"></path>
  </g>
  <g stroke-linecap="round" transform="translate(603 21) rotate(0 8 7.5)">
    <path
      d="M3.75 0 C7.96 0.63, 8.47 -0.88, 12.25 0 C13.09 -3.52, 17.66 2.31, 16 3.75 C15.08 6.42, 16.61 9.44, 16 11.25 C18.35 10.99, 15.56 14.78, 12.25 15 C10.32 15.5, 7.05 13.85, 3.75 15 C1.24 14.11, -0.8 11.7, 0 11.25 C-0.68 9.13, 0.46 7.25, 0 3.75 C-0.66 0.32, 4.03 -2.42, 3.75 0"
      stroke="none" stroke-width="0" fill="#ffffff"></path>
    <path
      d="M3.75 0 C6.27 -0.58, 7.67 -0.36, 12.25 0 M3.75 0 C7.03 -0.05, 10.05 0.47, 12.25 0 M12.25 0 C13.64 0.33, 16.73 2.95, 16 3.75 M12.25 0 C13.28 0.83, 16.88 0.41, 16 3.75 M16 3.75 C15.46 5.66, 16.35 8.71, 16 11.25 M16 3.75 C15.97 6.38, 16.3 9.11, 16 11.25 M16 11.25 C15.16 14.98, 16.3 15.97, 12.25 15 M16 11.25 C15.57 11.85, 14.73 15.66, 12.25 15 M12.25 15 C10.64 14.48, 7.05 15.21, 3.75 15 M12.25 15 C9.24 14.97, 6.8 15.25, 3.75 15 M3.75 15 C2.23 14.56, 0.73 14.53, 0 11.25 M3.75 15 C3.27 15.28, -1.15 12.45, 0 11.25 M0 11.25 C0.24 9.65, -0.44 7.59, 0 3.75 M0 11.25 C0.23 8.32, 0.08 5.72, 0 3.75 M0 3.75 C-0.64 2.42, 2.72 -1.62, 3.75 0 M0 3.75 C-1.85 0.27, 0.15 -1.73, 3.75 0"
      stroke="#e03131" stroke-width="1" fill="none"></path>
  </g>
  <g stroke-linecap="round" transform="translate(580 20.5) rotate(0 8 7.5)">
    <path
      d="M3.75 0 C6.48 0.35, 6.75 -1.13, 12.25 0 C14.56 1.54, 16.54 3.6, 16 3.75 C16.02 6.12, 16.95 7.64, 16 11.25 C16.92 13.48, 11.79 14.99, 12.25 15 C10.48 15.1, 8.37 14.16, 3.75 15 C2.35 16.27, 2.83 13.09, 0 11.25 C-1.3 8.9, -1.38 5.9, 0 3.75 C1.75 3.67, 2.07 -3.14, 3.75 0"
      stroke="none" stroke-width="0" fill="#ffffff"></path>
    <path
      d="M3.75 0 C6.71 0.13, 10.95 -0.5, 12.25 0 M3.75 0 C6.17 0.08, 9.3 -0.23, 12.25 0 M12.25 0 C15.15 1.73, 15.46 -0.37, 16 3.75 M12.25 0 C13.26 0.88, 16.49 2.51, 16 3.75 M16 3.75 C15.91 6.33, 16.06 7.27, 16 11.25 M16 3.75 C15.99 6.15, 16.06 9.28, 16 11.25 M16 11.25 C15.77 12.24, 16.04 16.99, 12.25 15 M16 11.25 C14.45 12.95, 15.18 15.57, 12.25 15 M12.25 15 C9.57 15.1, 7.57 15.37, 3.75 15 M12.25 15 C10.26 15.09, 7.31 14.79, 3.75 15 M3.75 15 C0.08 13.33, 1.66 14.23, 0 11.25 M3.75 15 C1.9 13.46, -0.1 15.05, 0 11.25 M0 11.25 C-0.45 8.56, -0.3 5.02, 0 3.75 M0 11.25 C-0.36 8.4, -0.23 5.59, 0 3.75 M0 3.75 C0.64 2.58, 0.57 1.82, 3.75 0 M0 3.75 C0.87 -0.14, -0.15 -1.06, 3.75 0"
      stroke="#f08c00" stroke-width="1" fill="none"></path>
  </g>
  <g stroke-linecap="round" transform="translate(21 22) rotate(0 200.5 15)">
    <path
      d="M7.5 0 C89.95 -1.62, 176.97 -2.25, 393.5 0 C398.59 1.8, 397.53 -0.54, 401 7.5 C398.77 13.84, 400.5 17.54, 401 22.5 C403.78 27.12, 398.11 30.18, 393.5 30 C280.24 31.41, 165.51 31.09, 7.5 30 C-0.43 30.2, 0.32 30.43, 0 22.5 C1.5 17.87, -1.83 14.43, 0 7.5 C-2.96 5.43, 3.89 0.47, 7.5 0"
      stroke="none" stroke-width="0" fill="#ffffff"></path>
    <path
      d="M7.5 0 C135.94 1.34, 264.98 0.36, 393.5 0 M7.5 0 C108.88 -1.8, 210.24 -1.73, 393.5 0 M393.5 0 C396.52 1.35, 400.59 1.6, 401 7.5 M393.5 0 C396.58 1.46, 401.72 3.43, 401 7.5 M401 7.5 C399.84 12.18, 401.48 15.56, 401 22.5 M401 7.5 C400.98 12.65, 401.59 18.75, 401 22.5 M401 22.5 C401.33 26.76, 397.98 29.09, 393.5 30 M401 22.5 C402.67 28.89, 398.91 32.07, 393.5 30 M393.5 30 C258.11 29.34, 120.76 28, 7.5 30 M393.5 30 C258.26 27.54, 122.06 27.9, 7.5 30 M7.5 30 C1.87 29.69, 0.28 27.36, 0 22.5 M7.5 30 C2.96 29.73, 2.23 28, 0 22.5 M0 22.5 C-0.44 18.54, -0.87 16.08, 0 7.5 M0 22.5 C-0.11 19.24, 0.42 15.31, 0 7.5 M0 7.5 C1.53 2.67, 1.6 -0.38, 7.5 0 M0 7.5 C-0.97 4.46, 2.9 2.22, 7.5 0"
      stroke="#1e1e1e" stroke-width="1" fill="none"></path>
  </g>
  <g stroke-linecap="round" transform="translate(22 65) rotate(0 298.5 199)">
    <path
      d="M32 0 C218.73 -2.05, 406.97 -1.38, 565 0 C587.93 -2.73, 596.14 10.86, 597 32 C598.16 110.03, 598.17 184.71, 597 366 C598.79 389.04, 583.16 395.81, 565 398 C441.17 401.29, 318.42 399.33, 32 398 C11.56 395.34, -0.31 384.29, 0 366 C-1.3 246.68, 1.73 125.26, 0 32 C-0.54 13.27, 13.52 -2.53, 32 0"
      stroke="none" stroke-width="0" fill="#ffffff"></path>
    <path
      d="M32 0 C234.42 2.16, 436.22 1.75, 565 0 M32 0 C218.76 1.99, 405.07 1.45, 565 0 M565 0 C587.28 -0.46, 596.93 12.21, 597 32 M565 0 C586.09 -0.25, 597.12 10.54, 597 32 M597 32 C597.72 117.48, 597.51 202.51, 597 366 M597 32 C597.18 134.36, 596.86 236.5, 597 366 M597 366 C596.86 386.07, 586.93 396.35, 565 398 M597 366 C598.87 388.22, 586.63 400.28, 565 398 M565 398 C369.52 397.89, 172.23 398.08, 32 398 M565 398 C354.4 397.86, 143.48 397.82, 32 398 M32 398 C9.93 396.58, -1.48 385.78, 0 366 M32 398 C11.31 397.2, -2.24 387.16, 0 366 M0 366 C2.34 264.37, 1.27 163.95, 0 32 M0 366 C-0.89 268.24, -1.51 170.38, 0 32 M0 32 C0.83 11.42, 9.24 -0.12, 32 0 M0 32 C-1.68 12.89, 8.81 0.8, 32 0"
      stroke="#1e1e1e" stroke-width="1" fill="none"></path>
  </g>
  <g stroke-linecap="round" transform="translate(556 19.5) rotate(0 8 7.5)">
    <path
      d="M3.75 0 C5.86 1.07, 8.67 0.55, 12.25 0 C16.09 -1.9, 17.04 2.86, 16 3.75 C16.02 7.55, 15.12 7.62, 16 11.25 C13.67 12.16, 17.24 18.49, 12.25 15 C10.25 14.86, 7.51 16.17, 3.75 15 C1.19 18.28, -2.86 17.1, 0 11.25 C-0.38 7.58, -1.2 5.74, 0 3.75 C-3.55 0.86, -1.8 0.92, 3.75 0"
      stroke="none" stroke-width="0" fill="#ffffff"></path>
    <path
      d="M3.75 0 C6.93 0.85, 9.42 0.6, 12.25 0 M3.75 0 C6.58 -0.36, 9.6 -0.33, 12.25 0 M12.25 0 C13.39 0.84, 15.84 0.79, 16 3.75 M12.25 0 C16.81 0.24, 15 0.11, 16 3.75 M16 3.75 C15.82 6.33, 16.42 8.4, 16 11.25 M16 3.75 C15.74 5.04, 15.89 6.58, 16 11.25 M16 11.25 C15.59 14.23, 14.65 14.36, 12.25 15 M16 11.25 C16.22 14.13, 14.97 14.29, 12.25 15 M12.25 15 C10.28 14.77, 9.02 15.05, 3.75 15 M12.25 15 C10.55 15.26, 8.38 14.69, 3.75 15 M3.75 15 C1.15 14.66, 0.51 13.65, 0 11.25 M3.75 15 C-0.82 15.89, -2.1 13.47, 0 11.25 M0 11.25 C-0.6 8.48, 0.59 5.64, 0 3.75 M0 11.25 C0.08 9.14, 0.13 7.3, 0 3.75 M0 3.75 C1.11 -0.72, 1.59 1.1, 3.75 0 M0 3.75 C-0.29 0.9, -0.63 -1.87, 3.75 0"
      stroke="#2f9e44" stroke-width="1" fill="none"></path>
  </g>
  <g stroke-linecap="round">
    <g transform="translate(606.25 24.171094258626454) rotate(0 4.375 3.9583333333333144)">
      <path d="M-0.2 0.18 C1.35 1.55, 7.55 6.6, 9.01 7.89 M0.34 -0.04 C1.89 1.42, 7.37 6.94, 8.86 8.32" stroke="#e03131"
        stroke-width="1" fill="none"></path>
    </g>
  </g>
  <mask></mask>
  <g stroke-linecap="round">
    <g transform="translate(614.5833333333335 24.587760925293082) rotate(0 -4.1666666666667425 3.75)">
      <path d="M-0.27 -0.14 C-1.64 1.05, -6.78 6.09, -8.11 7.38 M0.23 -0.52 C-1.16 0.7, -6.84 6.52, -8.28 7.77"
        stroke="#e03131" stroke-width="1" fill="none"></path>
    </g>
  </g>
  <mask></mask>
  <g stroke-linecap="round">
    <g transform="translate(559.3333333333335 30.421094258626454) rotate(0 4.791666666666629 0)">
      <path d="M-0.05 0 C1.49 0.1, 7.71 0.25, 9.31 0.3 M-0.5 -0.31 C1.14 -0.28, 8.33 -0.19, 9.97 -0.17" stroke="#2f9e44"
        stroke-width="1" fill="none"></path>
    </g>
  </g>
  <mask></mask>
  <g stroke-linecap="round"
    transform="translate(585.1666666666667 24.171094258626454) rotate(0 2.7083333333333712 2.7083333333333144)">
    <path
      d="M1.35 0 C1.86 -0.05, 2.58 -0.05, 4.06 0 C7.01 -1.06, 5.84 1.94, 5.42 1.35 C5.58 2.19, 5.63 2.39, 5.42 4.06 C6.14 5.86, 3.32 6.28, 4.06 5.42 C3.08 5.27, 2.03 5.4, 1.35 5.42 C2.19 4.16, -0.21 5.42, 0 4.06 C0.1 2.97, -0.27 2.03, 0 1.35 C-1.45 -1.48, 1.15 2.06, 1.35 0"
      stroke="none" stroke-width="0" fill="#ffffff"></path>
    <path
      d="M1.35 0 C2.4 0, 3.29 -0.03, 4.06 0 M1.35 0 C2.4 0.03, 3.43 0.02, 4.06 0 M4.06 0 C4.8 -0.12, 5.53 0.73, 5.42 1.35 M4.06 0 C5.36 0.69, 6.05 1.13, 5.42 1.35 M5.42 1.35 C5.42 2.22, 5.47 3.27, 5.42 4.06 M5.42 1.35 C5.46 2.12, 5.38 2.77, 5.42 4.06 M5.42 4.06 C6.02 4.9, 5.21 6.08, 4.06 5.42 M5.42 4.06 C5.52 5.5, 5.65 5.77, 4.06 5.42 M4.06 5.42 C3.48 5.41, 2.78 5.4, 1.35 5.42 M4.06 5.42 C3.49 5.42, 2.93 5.38, 1.35 5.42 M1.35 5.42 C0.37 5.06, 0.06 5.2, 0 4.06 M1.35 5.42 C-0.12 5.77, 0.73 4.83, 0 4.06 M0 4.06 C-0.09 3.39, -0.06 2.87, 0 1.35 M0 4.06 C0.02 3.13, -0.04 2.25, 0 1.35 M0 1.35 C-0.66 0.96, -0.01 -0.13, 1.35 0 M0 1.35 C-0.29 0.01, 0.87 -0.67, 1.35 0"
      stroke="#f08c00" stroke-width="1" fill="none"></path>
  </g>
</svg>